<svg width="79" height="80" viewBox="0 0 79 80" fill="none" xmlns="http://www.w3.org/2000/svg">
<path d="M13.2653 72.8043C12.3354 72.8043 11.5565 72.4892 10.9286 71.8591C10.3006 71.229 9.98559 70.4501 9.9834 69.5224V56.3948C9.9834 54.5897 10.6267 53.045 11.9132 51.7607C13.1997 50.4764 14.7443 49.8332 16.5472 49.831H62.4938C64.2989 49.831 65.8446 50.4742 67.1311 51.7607C68.4176 53.0472 69.0598 54.5919 69.0576 56.3948V69.5224C69.0576 70.4522 68.7425 71.2322 68.1124 71.8624C67.4823 72.4925 66.7034 72.8065 65.7757 72.8043H13.2653ZM16.5472 43.2672V33.4215C16.5472 31.6164 17.1905 30.0717 18.477 28.7874C19.7635 27.5031 21.3081 26.8599 23.111 26.8577H36.2386V22.0989C35.254 21.4425 34.4609 20.6494 33.8592 19.7195C33.2575 18.7897 32.9567 17.6683 32.9567 16.3556C32.9567 15.5351 33.1208 14.7278 33.449 13.9335C33.7772 13.1393 34.2695 12.4151 34.9258 11.7609L39.5205 7.16626L44.1152 11.7609C44.7715 12.4173 45.2638 13.1415 45.592 13.9335C45.9202 14.7256 46.0843 15.5329 46.0843 16.3556C46.0843 17.6683 45.7835 18.7897 45.1818 19.7195C44.5801 20.6494 43.787 21.4425 42.8024 22.0989V26.8577H55.93C57.735 26.8577 59.2808 27.4998 60.5673 28.7841C61.8538 30.0685 62.496 31.6142 62.4938 33.4215V43.2672H16.5472Z" fill="#474747"/>
</svg>
