<svg width="80" height="80" viewBox="0 0 80 80" fill="none" xmlns="http://www.w3.org/2000/svg">
<path d="M15.6458 15.7017C15.6458 13.0905 16.6831 10.5862 18.5295 8.73976C20.3759 6.89333 22.8802 5.85602 25.4915 5.85602C28.1027 5.85602 30.607 6.89333 32.4534 8.73976C34.2998 10.5862 35.3372 13.0905 35.3372 15.7017C35.3372 18.313 34.2998 20.8173 32.4534 22.6637C30.607 24.5101 28.1027 25.5474 25.4915 25.5474C22.8802 25.5474 20.3759 24.5101 18.5295 22.6637C16.6831 20.8173 15.6458 18.313 15.6458 15.7017ZM49.0178 23.4995L49.2245 23.657C51.3132 25.2053 53.9296 25.8645 56.5026 25.4909C59.0756 25.1172 61.3963 23.7409 62.9583 21.6625C64.5204 19.584 65.1968 16.9721 64.8401 14.3967C64.4835 11.8213 63.1226 9.4915 61.0545 7.9158C58.9864 6.34009 56.3789 5.64639 53.8012 5.98607C51.2235 6.32575 48.8848 7.67123 47.2955 9.7289C45.7062 11.7866 44.9953 14.3893 45.3179 16.9692C45.6406 19.5491 46.9706 21.8967 49.0178 23.4995ZM31.7336 30.4703C32.3519 29.2994 33.2001 28.2654 34.2273 27.4299C35.2545 26.5944 36.4396 25.9747 37.7119 25.6078C38.9841 25.241 40.3173 25.1345 41.6316 25.2947C42.9459 25.455 44.2145 25.8787 45.3612 26.5406C46.508 27.2024 47.5096 28.0888 48.3059 29.1466C49.1022 30.2045 49.677 31.4121 49.9958 32.6972C50.3147 33.9823 50.371 35.3185 50.1615 36.6259C49.952 37.9333 49.481 39.185 48.7765 40.3061C47.4214 42.463 45.283 44.0106 42.8107 44.624C40.3384 45.2374 37.7246 44.8688 35.5185 43.5955C33.3123 42.3223 31.6854 40.2435 30.9796 37.796C30.2738 35.3485 30.5441 32.7227 31.7336 30.4703ZM13.1843 30.4703H26.3283C25.4518 32.9687 25.2608 35.6563 25.7751 38.2536C26.2893 40.8509 27.4901 43.2629 29.2525 45.2388H27.9529C25.4147 45.2378 22.9382 46.0215 20.8628 47.4827C18.7873 48.9439 17.2144 51.011 16.3596 53.4009C14.7061 52.7392 13.1586 51.8386 11.7665 50.7278C8.06456 47.7495 5.80005 43.3485 5.80005 37.8546C5.80005 35.8961 6.57803 34.0179 7.96285 32.6331C9.34767 31.2483 11.2259 30.4703 13.1843 30.4703ZM52.5671 45.2388C57.9084 45.2388 62.4571 48.6405 64.1604 53.4009C65.8342 52.7166 67.38 51.8256 68.7535 50.7278C72.4555 47.7495 74.72 43.3485 74.72 37.8546C74.72 35.8961 73.942 34.0179 72.5572 32.6331C71.1723 31.2483 69.2941 30.4703 67.3357 30.4703H54.1917C54.7332 32.0111 55.0286 33.6701 55.0286 35.3931C55.0285 39.0259 53.6894 42.5312 51.2675 45.2388H52.5671ZM59.3951 54.7301C59.7545 55.5965 59.9514 56.5515 59.9514 57.546C59.9514 63.0399 57.6918 67.4409 53.9849 70.4192C50.3371 73.3483 45.4438 74.7759 40.26 74.7759C35.0762 74.7759 30.1829 73.3483 26.5351 70.4192C22.8331 67.4409 20.5686 63.0399 20.5686 57.546C20.566 56.5755 20.7552 55.6141 21.1254 54.717C21.4956 53.82 22.0394 53.0049 22.7256 52.3187C23.4118 51.6325 24.2269 51.0887 25.124 50.7185C26.021 50.3483 26.9824 50.1591 27.9529 50.1617H52.5671C54.0297 50.1613 55.4595 50.5954 56.6751 51.4087C57.8907 52.222 58.8374 53.378 59.3951 54.7301Z" fill="#474747"/>
</svg>
