<svg width="79" height="80" viewBox="0 0 79 80" fill="none" xmlns="http://www.w3.org/2000/svg">
<path d="M36.1516 7.49695C42.5273 7.49597 48.6855 9.81497 53.4769 14.0212C58.2683 18.2273 61.3654 24.0333 62.1902 30.3554L69.5745 41.97C70.0602 42.7347 69.9618 43.8735 68.8361 44.3593L62.4069 47.1095V56.7255C62.4069 58.4663 61.7153 60.1358 60.4844 61.3668C59.2534 62.5977 57.5839 63.2893 55.8431 63.2893H49.2825L49.2793 73.135H19.7421V61.0116C19.7421 57.139 18.3112 53.4731 15.6562 50.1649C12.5637 46.3036 10.625 41.6472 10.0635 36.7321C9.50199 31.817 10.3406 26.8433 12.4826 22.384C14.6246 17.9247 17.9828 14.1614 22.1704 11.5275C26.3581 8.89363 31.2046 7.49645 36.1516 7.49695ZM34.4122 26.4105C33.3293 25.3641 31.8786 24.7849 30.3727 24.7977C28.8668 24.8105 27.4262 25.4142 26.3611 26.4789C25.296 27.5435 24.6917 28.9839 24.6784 30.4898C24.665 31.9957 25.2436 33.4465 26.2895 34.53L36.1516 44.3954L46.0138 34.53C46.5622 34 46.9996 33.3662 47.3005 32.6654C47.6013 31.9647 47.7596 31.211 47.7661 30.4484C47.7726 29.6858 47.6271 28.9296 47.3382 28.2238C47.0492 27.518 46.6227 26.8768 46.0833 26.3377C45.5439 25.7986 44.9026 25.3722 44.1967 25.0836C43.4908 24.795 42.7345 24.6498 41.9719 24.6566C41.2093 24.6633 40.4557 24.8219 39.7551 25.1231C39.0544 25.4242 38.4207 25.8619 37.8911 26.4105L36.1516 28.1499L34.4122 26.4105Z" fill="#474747"/>
</svg>
