<svg width="35" height="35" viewBox="0 0 35 35" fill="none" xmlns="http://www.w3.org/2000/svg">
<g id="icon-park-outline:bread">
<g id="Group">
<path id="Vector" d="M2.91675 23.3939C2.91675 22.5174 3.11071 21.6475 3.62477 20.9381C5.13706 18.849 9.23935 14.5834 17.5001 14.5834C25.7608 14.5834 29.8631 18.8497 31.3754 20.9381C31.8895 21.6475 32.0834 22.5174 32.0834 23.3939C32.0834 24.9249 31.4752 26.3933 30.3926 27.4759C29.31 28.5585 27.8416 29.1667 26.3106 29.1667H8.68956C7.15852 29.1667 5.69018 28.5585 4.60757 27.4759C3.52495 26.3933 2.91675 24.9249 2.91675 23.3939Z" stroke="black" stroke-width="2" stroke-linecap="round" stroke-linejoin="round"/>
<path id="Vector_2" d="M8.75016 6.56252V9.47919M10.2085 16.0417V18.9584M26.2502 6.56252V9.47919M24.7918 16.0417V18.9584M17.5002 5.10419V9.47919M17.5002 14.5834V20.4167M17.5002 14.5834C23.1935 14.5834 26.9108 16.6104 29.1668 18.5522M17.5002 14.5834C11.8068 14.5834 8.08954 16.6097 5.8335 18.5522" stroke="black" stroke-width="2" stroke-linecap="round"/>
</g>
</g>
</svg>
