<svg width="40" height="40" viewBox="0 0 40 40" fill="none" xmlns="http://www.w3.org/2000/svg">
<mask id="mask0_82_31" style="mask-type:alpha" maskUnits="userSpaceOnUse" x="0" y="0" width="40" height="40">
<rect width="40" height="40" fill="#D9D9D9"/>
</mask>
<g mask="url(#mask0_82_31)">
<path d="M30.2029 34.3279L35.9946 28.5363L34.5363 27.0779L31.25 30.3646V22.5308H29.1558V30.3646L25.8696 27.0779L24.4113 28.5363L30.2029 34.3279ZM24.1558 39.5833V37.4892H36.25V39.5833H24.1558ZM9.69001 32.9167C8.99529 32.9167 8.38709 32.656 7.86543 32.1346C7.34404 31.6129 7.08334 31.0047 7.08334 30.31V6.35667C7.08334 5.66194 7.34404 5.05375 7.86543 4.53208C8.38709 4.0107 8.99529 3.75 9.69001 3.75H21.7904L31.25 13.2096V19.2833H29.1558V14.1775H20.8225V5.84417H9.69001C9.56195 5.84417 9.44446 5.8975 9.33751 6.00417C9.23084 6.11111 9.17751 6.22861 9.17751 6.35667V30.31C9.17751 30.4381 9.23084 30.5556 9.33751 30.6625C9.44446 30.7692 9.56195 30.8225 9.69001 30.8225H20.9083V32.9167H9.69001Z" fill="#1C1B1F"/>
</g>
</svg>
