<svg width="110" height="51" viewBox="0 0 110 51" fill="none" xmlns="http://www.w3.org/2000/svg">
<circle cx="8.86621" cy="6.3125" r="4.875" fill="white"/>
<circle cx="25.9285" cy="6.3125" r="4.875" fill="white"/>
<path d="M16.0624 19.2448H18.732C24.3145 19.2448 28.8399 23.7702 28.8399 29.3527C28.8399 30.1273 28.212 30.7552 27.4374 30.7552H7.35704C6.58244 30.7552 5.95451 30.1273 5.95451 29.3527C5.95451 23.7702 10.48 19.2448 16.0624 19.2448Z" stroke="#FDC74B" stroke-width="4.73958"/>
<path d="M7.24121 38.8125L7.42051 39.0232C12.7248 45.2557 22.381 45.1547 27.5537 38.8125V38.8125" stroke="white" stroke-width="5.6875" stroke-linecap="round"/>
<path d="M47.3171 29.9205V43.1285C47.3171 44.1685 46.9358 44.9658 46.1731 45.5205C45.4798 46.0752 44.6825 46.3525 43.7811 46.3525C42.8798 46.3525 42.0478 46.0752 41.2851 45.5205C40.5918 44.9658 40.2451 44.1685 40.2451 43.1285V18.6885C40.2451 17.5098 40.5918 16.6432 41.2851 16.0885C42.0478 15.4645 42.8798 15.1525 43.7811 15.1525C44.6825 15.1525 45.4798 15.4645 46.1731 16.0885C46.9358 16.6432 47.3171 17.5098 47.3171 18.6885V19.1045C48.2878 17.7872 49.5358 16.7125 51.0611 15.8805C52.6558 15.0485 54.3198 14.6325 56.0531 14.6325C56.8851 14.6325 57.7171 14.7365 58.5491 14.9445C59.3811 15.1525 60.0051 15.5685 60.4211 16.1925C60.8371 16.8165 61.0451 17.5098 61.0451 18.2725C61.0451 19.1738 60.7331 20.0058 60.1091 20.7685C59.5545 21.4618 58.7225 21.8085 57.6131 21.8085C57.1278 21.8085 56.6078 21.7392 56.0531 21.6005C55.5678 21.4618 54.9438 21.3925 54.1811 21.3925C52.1705 21.3925 50.5065 22.1552 49.1891 23.6805C47.9411 25.2058 47.3171 27.2858 47.3171 29.9205Z" fill="white"/>
<path d="M71.5101 46.3525C70.6088 46.3525 69.7768 46.0752 69.0141 45.5205C68.3208 44.9658 67.9741 44.1685 67.9741 43.1285V18.1685C67.9741 16.9898 68.3208 16.1232 69.0141 15.5685C69.7768 14.9445 70.6088 14.6325 71.5101 14.6325C72.4115 14.6325 73.2088 14.9445 73.9021 15.5685C74.6648 16.1232 75.0461 16.9898 75.0461 18.1685V43.1285C75.0461 44.1685 74.6648 44.9658 73.9021 45.5205C73.2088 46.0752 72.4115 46.3525 71.5101 46.3525ZM71.6141 8.91251C70.2968 8.91251 69.1528 8.49651 68.1821 7.66451C67.2808 6.76318 66.8301 5.68851 66.8301 4.44051C66.8301 3.26184 67.2808 2.25651 68.1821 1.42451C69.1528 0.523177 70.2968 0.0725098 71.6141 0.0725098C72.8621 0.0725098 73.9368 0.523177 74.8381 1.42451C75.7395 2.25651 76.1901 3.26184 76.1901 4.44051C76.1901 5.68851 75.7395 6.76318 74.8381 7.66451C73.9368 8.49651 72.8621 8.91251 71.6141 8.91251Z" fill="white"/>
<path d="M96.5611 46.3525C94.5505 46.3525 92.5051 46.0752 90.4251 45.5205C88.3451 45.0352 86.5078 44.2378 84.9131 43.1285C84.0811 42.3658 83.6651 41.5338 83.6651 40.6325C83.6651 39.7312 84.0118 38.9338 84.7051 38.2405C85.4678 37.5472 86.2998 37.2005 87.2011 37.2005C87.6865 37.2005 88.1718 37.3392 88.6571 37.6165C89.9051 38.3792 91.3265 39.0032 92.9211 39.4885C94.5851 39.9045 96.1451 40.1125 97.6011 40.1125C98.9878 40.1125 100.166 39.8698 101.137 39.3845C102.177 38.8992 102.697 38.1018 102.697 36.9925C102.697 35.8832 102.212 35.0512 101.241 34.4965C100.27 33.9418 98.6065 33.5258 96.2491 33.2485C95.2785 33.1098 94.0998 32.9365 92.7131 32.7285C91.3958 32.5205 90.0785 32.1392 88.7611 31.5845C87.4438 31.0298 86.3345 30.1978 85.4331 29.0885C84.5318 27.9792 84.0811 26.4885 84.0811 24.6165C84.0811 21.5658 85.1905 19.1392 87.4091 17.3365C89.6971 15.5338 92.7478 14.6325 96.5611 14.6325C98.7798 14.6325 100.86 14.9098 102.801 15.4645C104.812 16.0192 106.302 16.7125 107.273 17.5445C108.036 18.1685 108.417 18.8965 108.417 19.7285C108.417 20.6298 108.105 21.4272 107.481 22.1205C106.857 22.8138 106.094 23.1605 105.193 23.1605C104.708 23.1605 104.257 23.0565 103.841 22.8485C102.732 22.2245 101.484 21.7738 100.097 21.4965C98.7798 21.1498 97.4971 20.9765 96.2491 20.9765C94.7931 20.9765 93.5451 21.2192 92.5051 21.7045C91.5345 22.1205 91.0491 22.8138 91.0491 23.7845C91.0491 24.4778 91.3265 25.1018 91.8811 25.6565C92.5051 26.1418 94.0651 26.5578 96.5611 26.9045C97.7398 27.0432 99.0571 27.2512 100.513 27.5285C102.038 27.8058 103.494 28.2565 104.881 28.8805C106.268 29.4352 107.412 30.3365 108.313 31.5845C109.214 32.8325 109.665 34.5312 109.665 36.6805C109.665 38.8992 109.041 40.7365 107.793 42.1925C106.545 43.5792 104.916 44.6192 102.905 45.3125C100.964 46.0058 98.8491 46.3525 96.5611 46.3525Z" fill="white"/>
</svg>
