<svg width="80" height="80" viewBox="0 0 80 80" fill="none" xmlns="http://www.w3.org/2000/svg">
<path d="M67.983 37.0341H63.0601V23.9065C63.0601 22.1657 62.3686 20.4961 61.1376 19.2652C59.9067 18.0342 58.2372 17.3427 56.4963 17.3427H43.3687V12.4198C43.3687 10.2438 42.5043 8.15689 40.9656 6.6182C39.4269 5.07951 37.34 4.21509 35.164 4.21509C32.9879 4.21509 30.901 5.07951 29.3623 6.6182C27.8237 8.15689 26.9592 10.2438 26.9592 12.4198V17.3427H13.8316C12.0908 17.3427 10.4213 18.0342 9.19031 19.2652C7.95936 20.4961 7.26782 22.1657 7.26782 23.9065V36.3777H12.1907C17.1135 36.3777 21.0518 40.316 21.0518 45.2388C21.0518 50.1617 17.1135 54.1 12.1907 54.1H7.26782V66.5712C7.26782 68.312 7.95936 69.9816 9.19031 71.2125C10.4213 72.4435 12.0908 73.135 13.8316 73.135H26.3028V68.2122C26.3028 63.2893 30.2411 59.351 35.164 59.351C40.0868 59.351 44.0251 63.2893 44.0251 68.2122V73.135H56.4963C58.2372 73.135 59.9067 72.4435 61.1376 71.2125C62.3686 69.9816 63.0601 68.312 63.0601 66.5712V53.4436H67.983C70.159 53.4436 72.2459 52.5792 73.7846 51.0405C75.3233 49.5018 76.1877 47.4149 76.1877 45.2388C76.1877 43.0628 75.3233 40.9759 73.7846 39.4372C72.2459 37.8985 70.159 37.0341 67.983 37.0341Z" fill="#474747"/>
</svg>
